<?xml version="1.0" standalone="no"?>
<!DOCTYPE svg PUBLIC "-//W3C//DTD SVG 20010904//EN"
 "http://www.w3.org/TR/2001/REC-SVG-20010904/DTD/svg10.dtd">
<svg version="1.0" xmlns="http://www.w3.org/2000/svg"
 width="500.000000pt" height="375.000000pt" viewBox="0 0 500.000000 375.000000"
 preserveAspectRatio="xMidYMid meet">

<g transform="translate(0.000000,375.000000) scale(0.100000,-0.100000)"
fill="#ffffff" stroke="none">
<path d="M1860 3700 c-489 -101 -837 -249 -1079 -457 l-34 -29 223 -325 c218
-316 298 -456 275 -478 -6 -5 -129 -48 -275 -96 -146 -48 -268 -90 -272 -94
-3 -3 6 -37 22 -76 21 -51 33 -69 45 -67 9 2 124 41 256 88 132 46 244 84 250
84 5 0 -9 -36 -31 -79 -107 -215 -149 -418 -120 -590 16 -95 76 -214 145 -290
61 -66 165 -139 257 -181 123 -55 305 -203 329 -266 15 -40 8 -65 -86 -354
-89 -274 -101 -317 -90 -349 9 -31 31 -26 145 29 56 28 105 48 108 46 2 -3 -3
-46 -12 -95 -21 -117 -21 -123 6 -119 35 5 41 62 42 348 1 220 -1 263 -17 314
-21 66 -84 196 -146 296 -21 36 -38 66 -36 68 2 2 46 0 99 -4 l97 -7 31 -39
c21 -27 37 -64 48 -112 15 -66 18 -71 41 -68 35 4 69 -6 69 -22 0 -7 -9 -25
-21 -40 -11 -15 -19 -32 -16 -39 3 -7 30 -42 61 -79 31 -36 67 -86 79 -109 16
-31 35 -50 65 -64 22 -11 41 -24 42 -30 0 -5 13 -38 29 -71 35 -74 62 -96 201
-163 58 -28 114 -63 126 -77 21 -26 21 -26 27 -4 3 12 2 33 -3 46 -7 19 -3 33
24 72 54 80 78 261 53 388 -13 67 -13 73 6 110 19 37 55 80 61 73 10 -12 42
-83 73 -162 45 -117 106 -359 128 -509 16 -110 19 -118 40 -118 l22 0 -14 73
c-49 253 -98 472 -119 534 -13 40 -55 140 -94 223 -38 82 -70 152 -70 154 0 9
168 -56 257 -99 50 -25 102 -45 113 -45 38 0 89 31 136 83 51 57 173 235 209
306 13 26 43 69 67 96 41 45 49 49 104 55 46 5 64 3 81 -9 21 -14 23 -23 20
-91 l-2 -75 -57 -19 c-32 -10 -58 -22 -58 -27 0 -5 62 -9 137 -9 78 0 133 4
128 9 -6 4 -31 16 -57 26 l-48 18 0 79 c0 57 4 84 15 94 9 10 13 24 9 40 -4
14 -2 24 5 24 19 0 12 37 -10 51 -33 22 -11 61 53 96 29 15 63 43 75 62 22 32
23 44 23 192 l0 159 -112 1 c-150 1 -209 -1 -232 -8 -18 -5 -19 -13 -13 -130
7 -141 17 -168 84 -243 l44 -49 -35 -69 -35 -70 -54 -6 c-87 -11 -104 -28
-186 -182 -120 -226 -171 -297 -233 -330 -41 -21 -75 -17 -134 17 -29 16 -117
56 -194 89 -160 66 -190 83 -190 108 0 9 -3 26 -6 38 -4 17 5 29 44 58 61 44
133 147 166 238 37 99 66 252 73 393 6 122 7 125 27 118 12 -5 59 -8 106 -8
99 1 146 18 174 66 33 56 2 177 -47 187 -23 5 -42 -39 -31 -75 l8 -28 4 25 c5
34 18 46 24 22 7 -26 -16 -90 -39 -107 -10 -9 -42 -14 -77 -15 -72 0 -146 39
-146 78 0 59 -34 185 -72 262 -59 123 -158 220 -290 285 -54 27 -97 49 -95 50
1 1 135 48 297 105 162 57 298 106 302 109 3 3 9 36 13 73 l7 68 -338 -114
c-187 -63 -346 -117 -354 -120 -19 -8 -60 65 -309 544 -98 190 -185 346 -192
347 -8 1 -75 -11 -149 -27z m570 -820 c7 -16 11 -33 10 -37 -1 -4 -262 -96
-579 -204 -563 -191 -576 -195 -588 -175 -27 46 -26 47 320 171 264 95 787
270 818 274 4 1 12 -12 19 -29z m190 -218 c218 -94 353 -269 385 -500 l7 -53
-29 8 c-15 4 -59 7 -97 6 -56 -2 -82 -8 -135 -35 -96 -48 -128 -108 -105 -196
7 -23 50 -52 79 -52 26 0 56 38 49 64 -15 61 114 132 197 107 l39 -12 0 -77
c0 -336 -102 -602 -267 -698 -56 -34 -214 -90 -333 -119 -417 -103 -769 -62
-1026 121 -279 197 -319 538 -111 944 l52 103 590 208 c325 115 601 208 615
208 14 0 54 -12 90 -27z m1398 -793 l3 -106 -47 -7 c-26 -3 -91 -6 -145 -6
l-99 0 0 108 c0 60 3 112 7 116 4 3 68 5 142 4 l136 -3 3 -106z m-1296 -789
c37 -52 37 -53 19 -79 -10 -14 -21 -31 -24 -37 -4 -7 22 -41 58 -77 l65 -66
-16 -43 c-26 -66 -35 -74 -54 -50 -9 11 -40 71 -68 134 -40 89 -53 129 -58
187 -6 57 -4 75 7 82 22 13 31 7 71 -51z m-108 -7 c9 -55 7 -73 -5 -73 -15 0
-101 72 -94 79 8 7 66 29 81 30 6 1 14 -16 18 -36z m-112 -57 l38 -43 -11 -81
c-10 -68 -15 -81 -33 -86 -38 -10 -136 73 -136 115 0 28 37 121 52 131 26 16
54 5 90 -36z m-295 -45 c29 -52 33 -69 39 -177 5 -83 14 -140 31 -188 12 -38
22 -71 20 -73 -2 -1 -38 37 -80 86 l-77 89 31 58 c29 55 29 59 12 72 -10 7
-34 12 -53 10 -34 -3 -35 -1 -81 82 l-46 85 71 6 c39 3 78 6 86 7 9 1 28 -22
47 -57z m107 17 c-8 -24 -17 -49 -19 -57 -4 -11 -8 -11 -21 0 -16 13 -64 84
-64 94 0 3 27 5 60 5 l59 0 -15 -42z m505 -65 c35 -71 31 -71 -36 -9 -18 16
-33 35 -33 41 0 12 20 35 30 35 3 0 21 -30 39 -67z m-160 -35 c16 -35 44 -97
64 -138 34 -73 70 -182 81 -247 4 -22 -1 -39 -14 -56 -21 -26 -67 -44 -81 -30
-5 5 -16 60 -24 122 -16 114 -33 161 -93 255 -32 52 -33 113 0 138 13 10 27
18 31 18 4 0 21 -28 36 -62z m-276 -65 l49 -52 -11 -73 c-25 -185 -26 -178 18
-262 l40 -76 -32 0 c-31 0 -34 4 -84 109 -58 120 -69 159 -79 279 -7 78 -6 84
16 107 13 14 26 24 30 23 3 -2 27 -26 53 -55z m181 -85 c77 -122 97 -175 103
-273 l6 -93 -31 -16 c-40 -21 -70 -20 -107 2 -33 20 -79 104 -90 163 -10 53
22 239 43 255 29 22 41 16 76 -38z m-634 -189 c6 -46 7 -125 4 -176 l-7 -91
-78 -36 c-86 -40 -109 -44 -109 -20 0 72 151 437 172 416 4 -4 13 -46 18 -93z
m866 -161 c-3 -13 -10 -48 -16 -79 -7 -36 -21 -68 -41 -92 -50 -60 -71 -46
-84 54 l-7 56 69 41 c37 23 71 41 76 42 4 0 5 -10 3 -22z m-163 -132 c5 -32 6
-60 3 -63 -10 -10 -94 37 -141 81 l-50 46 90 -3 90 -2 8 -59z"/>
<path d="M2160 2443 c0 -43 34 -90 70 -98 30 -6 82 -3 155 12 29 5 29 4 -17
-36 -61 -55 -76 -97 -53 -156 29 -77 123 -145 200 -145 96 0 203 95 229 203 9
39 -10 103 -39 125 l-25 20 41 26 c61 41 29 66 -35 27 -45 -28 -352 -41 -408
-18 -21 9 -38 20 -38 24 0 10 -53 43 -69 43 -6 0 -11 -12 -11 -27z m495 -117
l40 -13 -84 -7 c-112 -11 -134 -18 -197 -66 -48 -36 -54 -38 -54 -20 0 31 27
78 52 91 57 30 171 37 243 15z m-63 -78 c2 -18 10 -23 33 -23 23 0 31 5 33 23
3 16 10 22 28 22 24 0 25 -3 19 -32 -4 -18 -17 -57 -30 -85 -44 -98 -128 -119
-237 -61 -33 18 -62 38 -65 45 -6 16 30 66 66 93 16 11 53 24 82 29 30 5 57 9
61 10 4 0 8 -9 10 -21z"/>
<path d="M1920 2362 c0 -4 7 -18 16 -30 8 -12 14 -32 12 -45 -3 -21 -9 -22
-113 -27 -93 -5 -117 -9 -150 -29 -61 -37 -74 -50 -121 -123 -40 -61 -48 -68
-84 -74 -51 -8 -47 -25 11 -39 50 -12 41 -26 -26 -35 -30 -4 -39 -10 -37 -22
1 -10 -4 -15 -15 -14 -10 0 -18 -6 -18 -14 0 -8 -4 -21 -9 -28 -10 -17 8 -37
24 -27 6 4 9 13 6 20 -9 24 21 38 69 31 38 -6 47 -12 61 -41 28 -59 92 -122
156 -154 74 -38 167 -42 234 -12 90 41 157 163 158 286 1 60 -3 77 -28 119
-15 27 -44 66 -64 88 -27 29 -32 42 -24 50 7 7 12 35 12 64 0 45 -3 52 -22 58
-31 8 -48 7 -48 -2z m-7 -156 c68 -30 123 -78 136 -119 34 -108 20 -216 -36
-278 -78 -86 -219 -119 -309 -72 -106 56 -144 116 -144 228 0 89 21 136 88
196 81 73 168 88 265 45z"/>
<path d="M2390 1972 c-36 -9 -80 -28 -99 -41 -47 -34 -104 -126 -141 -229 -46
-128 -51 -134 -112 -130 -56 3 -66 13 -43 43 14 19 16 19 28 3 16 -20 27 -14
27 14 0 14 -8 18 -34 18 -38 0 -53 -14 -62 -56 -10 -49 23 -69 113 -69 86 0
78 -7 176 150 34 55 81 119 104 143 39 38 47 42 94 42 40 0 58 -5 81 -25 32
-27 49 -30 78 -15 46 25 48 97 4 145 -20 22 -31 25 -86 24 -35 0 -92 -8 -128
-17z"/>
<path d="M1404 1829 c-10 -17 13 -36 27 -22 12 12 4 33 -11 33 -5 0 -12 -5
-16 -11z"/>
<path d="M2815 1794 c16 -24 25 -51 25 -76 0 -44 14 -44 23 1 8 37 -9 88 -33
101 -35 19 -39 10 -15 -26z"/>
<path d="M1427 1783 c-2 -4 -3 -21 -3 -38 1 -45 31 -41 31 4 0 32 -17 53 -28
34z"/>
<path d="M2570 1743 c-35 -18 -70 -66 -57 -79 4 -4 15 1 26 10 27 24 105 46
165 46 58 0 89 13 59 24 -10 4 -49 10 -88 12 -55 4 -77 1 -105 -13z"/>
<path d="M2452 1734 c-55 -38 -47 -95 19 -144 60 -43 76 -37 29 10 -32 32 -40
47 -40 76 0 19 5 44 10 55 13 23 11 23 -18 3z"/>
<path d="M1429 1698 c-6 -18 -5 -69 2 -73 4 -3 6 -12 3 -19 -3 -8 0 -17 6 -21
16 -10 34 10 24 27 -5 7 -9 28 -9 47 0 19 -6 36 -12 38 -7 3 -13 3 -14 1z"/>
<path d="M1444 1559 c-10 -17 13 -36 27 -22 12 12 4 33 -11 33 -5 0 -12 -5
-16 -11z"/>
<path d="M1444 1509 c-10 -17 13 -36 27 -22 12 12 4 33 -11 33 -5 0 -12 -5
-16 -11z"/>
<path d="M1454 1459 c-10 -17 13 -36 27 -22 12 12 4 33 -11 33 -5 0 -12 -5
-16 -11z"/>
<path d="M1454 1409 c-10 -17 13 -36 27 -22 12 12 4 33 -11 33 -5 0 -12 -5
-16 -11z"/>
<path d="M1454 1359 c-10 -17 13 -36 27 -22 12 12 4 33 -11 33 -5 0 -12 -5
-16 -11z"/>
<path d="M1454 1309 c-10 -17 13 -36 27 -22 12 12 4 33 -11 33 -5 0 -12 -5
-16 -11z"/>
<path d="M1454 1259 c-10 -17 13 -36 27 -22 12 12 4 33 -11 33 -5 0 -12 -5
-16 -11z"/>
<path d="M1474 1209 c-10 -17 13 -36 27 -22 12 12 4 33 -11 33 -5 0 -12 -5
-16 -11z"/>
</g>
</svg>
